# xmcd
#
# Track frame offsets: 
#        150
#        11218
#        22469
#        44393
#        60085
#        74882
#        87328
#        108330
#        120216
#        134606
#        152677
#        166149
#        186519
#        201190
#        216756
#
# Disc length: 3102 seconds
#
# Revision: 0
# Processed by: cddbd v1.5.2PL0 Copyright (c) Steve Scherf et al.
# Submitted via: ExactAudioCopyFreeDBPlugin 1.0
#
DISCID=da0c1c0f
DTITLE=Wylie and the Wild West - Sky Tones - Songs of Montana
DYEAR=2013
DGENRE=Country
TTITLE0=Mmm ... Montana
TTITLE1=Whoop Up Trail
TTITLE2=Grace
TTITLE3=My Home's in Montana
TTITLE4=Buck Up and Huck It
TTITLE5=Montana Love Song
TTITLE6=I Get High
TTITLE7=Hi-Line Polka
TTITLE8=Big Sky Lullaby
TTITLE9=Montana Moon
TTITLE10=Ol' Montana
TTITLE11=Goodbye Old Paint
TTITLE12=Summer Leases
TTITLE13=Ridin' the Hi-Line
TTITLE14=The Yodeling Fool
EXTD=
EXTT0=
EXTT1=
EXTT2=
EXTT3=
EXTT4=
EXTT5=
EXTT6=
EXTT7=
EXTT8=
EXTT9=
EXTT10=
EXTT11=
EXTT12=
EXTT13=
EXTT14=
PLAYORDER=
